<?xml version="1.0" encoding="utf-8"?>
<!-- Generator: Adobe Illustrator 24.1.1, SVG Export Plug-In . SVG Version: 6.00 Build 0)  -->
<svg version="1.1" id="Layer_1" xmlns="http://www.w3.org/2000/svg" xmlns:xlink="http://www.w3.org/1999/xlink" x="0px" y="0px"
	 viewBox="0 0 255.12 155.91" style="enable-background:new 0 0 255.12 155.91;" xml:space="preserve">
<style type="text/css">
	.st0{fill:#2B3990;}
	.st1{fill:#FAA333;}
	.st2{fill:#FFFFFF;}
</style>
<path class="st0" d="M168.81,70.2l7.41,25.4l6.75-23.61c0.72-2.47,1.26-4.16,1.6-5.06c0.35-0.9,1-1.76,1.96-2.58
	c0.96-0.82,2.27-1.23,3.94-1.23c1.69,0,3.02,0.41,3.98,1.23c0.96,0.82,1.63,1.71,2.02,2.67c0.39,0.96,0.93,2.62,1.62,4.98
	l6.75,23.61l7.5-25.4c0.5-1.83,0.9-3.16,1.21-3.98c0.31-0.82,0.82-1.54,1.54-2.17c0.72-0.62,1.76-0.94,3.12-0.94
	c1.36,0,2.54,0.47,3.54,1.42c1,0.94,1.5,2.05,1.5,3.33c0,1.17-0.43,2.93-1.29,5.29l-9.29,27.24c-0.81,2.3-1.43,3.97-1.87,5
	c-0.44,1.03-1.15,1.94-2.1,2.75c-0.96,0.8-2.27,1.21-3.94,1.21c-1.72,0-3.08-0.43-4.06-1.29c-0.99-0.86-1.71-1.92-2.19-3.16
	c-0.47-1.25-0.99-2.87-1.54-4.87l-6.5-22.16l-6.29,22.16c-0.83,3.08-1.74,5.41-2.71,6.98c-0.97,1.57-2.68,2.35-5.12,2.35
	c-1.25,0-2.31-0.24-3.19-0.73c-0.87-0.49-1.6-1.18-2.19-2.08c-0.58-0.9-1.1-1.97-1.54-3.21c-0.44-1.24-0.79-2.21-1.04-2.94
	l-9.2-27.24c-0.92-2.55-1.37-4.32-1.37-5.29c0-1.22,0.49-2.32,1.46-3.29c0.97-0.97,2.17-1.46,3.58-1.46c1.89,0,3.17,0.53,3.83,1.6
	C167.35,65.8,168.06,67.62,168.81,70.2z"/>
<g>
	<path class="st0" d="M76.11,83.49v11.7c0,1.56-0.15,2.8-0.46,3.73c-0.31,0.93-0.87,1.77-1.69,2.52c-0.82,0.75-1.87,1.47-3.14,2.17
		c-3.69,2-7.25,3.46-10.66,4.37c-3.41,0.92-7.14,1.37-11.16,1.37c-4.69,0-8.97-0.72-12.83-2.17c-3.86-1.44-7.15-3.54-9.87-6.29
		c-2.72-2.75-4.81-6.08-6.27-10c-1.46-3.91-2.19-8.29-2.19-13.12c0-4.75,0.71-9.09,2.12-13.04c1.42-3.94,3.5-7.29,6.25-10.04
		c2.75-2.75,6.09-4.85,10.04-6.31c3.94-1.46,8.41-2.19,13.41-2.19c4.11,0,7.75,0.55,10.91,1.65c3.17,1.1,5.73,2.48,7.71,4.14
		c1.97,1.67,3.46,3.43,4.46,5.29c1,1.86,1.5,3.51,1.5,4.96c0,1.56-0.58,2.88-1.73,3.98c-1.15,1.1-2.53,1.65-4.14,1.65
		c-0.89,0-1.74-0.21-2.56-0.62c-0.82-0.42-1.51-1-2.06-1.75c-1.53-2.39-2.82-4.19-3.87-5.41c-1.06-1.22-2.48-2.25-4.27-3.08
		c-1.79-0.83-4.08-1.25-6.85-1.25c-2.86,0-5.41,0.49-7.66,1.48c-2.25,0.99-4.17,2.42-5.77,4.29c-1.6,1.87-2.82,4.17-3.67,6.89
		c-0.85,2.72-1.27,5.73-1.27,9.04c0,7.16,1.65,12.67,4.94,16.53c3.29,3.86,7.88,5.79,13.76,5.79c2.86,0,5.55-0.37,8.06-1.12
		c2.51-0.75,5.06-1.82,7.64-3.21v-9.91H55.2c-2.3,0-4.05-0.35-5.23-1.04c-1.18-0.69-1.77-1.87-1.77-3.54c0-1.36,0.49-2.48,1.48-3.37
		c0.99-0.89,2.32-1.33,4.02-1.33h14.04c1.72,0,3.18,0.15,4.37,0.46c1.19,0.31,2.16,0.99,2.89,2.04
		C75.74,79.8,76.11,81.38,76.11,83.49z"/>
	<path class="st0" d="M87.1,102.44V53.13c0-2.28,0.51-4,1.52-5.16c1.01-1.17,2.38-1.75,4.1-1.75c1.72,0,3.11,0.58,4.16,1.73
		c1.05,1.15,1.58,2.88,1.58,5.19v49.31c0,2.3-0.54,4.03-1.6,5.18c-1.07,1.15-2.45,1.73-4.14,1.73c-1.67,0-3.02-0.6-4.06-1.79
		C87.62,106.37,87.1,104.66,87.1,102.44z"/>
	<path class="st0" d="M152.78,86.24c0,3.39-0.53,6.51-1.58,9.37c-1.06,2.86-2.58,5.32-4.58,7.37c-2,2.06-4.39,3.63-7.16,4.73
		c-2.78,1.1-5.9,1.65-9.37,1.65c-3.44,0-6.54-0.56-9.29-1.67c-2.75-1.11-5.13-2.7-7.14-4.77c-2.01-2.07-3.54-4.51-4.58-7.33
		c-1.04-2.82-1.56-5.93-1.56-9.35c0-3.44,0.53-6.59,1.58-9.45c1.06-2.86,2.57-5.3,4.54-7.33c1.97-2.03,4.36-3.59,7.16-4.69
		c2.8-1.1,5.9-1.65,9.29-1.65c3.44,0,6.57,0.56,9.37,1.67c2.8,1.11,5.21,2.69,7.21,4.75c2,2.05,3.52,4.5,4.56,7.33
		C152.26,79.7,152.78,82.82,152.78,86.24z M141.37,86.24c0-4.64-1.02-8.25-3.06-10.83c-2.04-2.58-4.78-3.87-8.22-3.87
		c-2.22,0-4.18,0.58-5.87,1.73c-1.69,1.15-3,2.85-3.91,5.1c-0.92,2.25-1.37,4.87-1.37,7.87c0,2.97,0.45,5.57,1.35,7.79
		c0.9,2.22,2.19,3.92,3.87,5.1c1.68,1.18,3.66,1.77,5.94,1.77c3.44,0,6.18-1.3,8.22-3.89C140.35,94.41,141.37,90.82,141.37,86.24z"
		/>
</g>
<path class="st1" d="M157.68,62.99c1.39-1.38,3.17-2.12,5.17-2.12c1.74,0,3,0.39,3.93,0.93c-0.51-4.68-0.96-6.69-1.22-8.1
	c-0.68-3.63-0.71-5.8,0.83-8.96c1.28-2.63,3.3-4.19,6.24-4.63c2.51-0.38,4.95,0.21,7.42,0.31c1.38,0.06,2.76,0.24,4.13,0.24
	c0.92,0,1.84-0.2,2.76-0.33c2.29-0.31,4.26-1.32,6.04-2.75c0.07-0.05,0.05-0.2,0.08-0.33c-2.7,0.99-5.43,1.11-8.16,0.69
	c-2.46-0.37-4.75-1.3-6.95-2.49c-3-1.62-6.08-3.09-9.55-3.36c-1.19-0.09-2.44-0.11-3.6,0.15c-2.39,0.53-4.12,2.04-5.37,4.13
	c-1.09,1.83-1.73,3.82-2.14,5.88c-0.27,1.39-0.39,2.81-0.58,4.22c-0.72,5.23-0.53,11.67,0.25,17.35
	C157.18,63.54,157.42,63.26,157.68,62.99z"/>
<g>
	<path class="st1" d="M224.33,44l-5.13-1.71l0.28,6.3l0.17,3.83l-2.29-3.07l-1.03-1.38c0.16,0.99,0.24,1.99,0.26,3
		c0.04,1.92-0.06,3.85-0.13,5.77c-0.02,0.61-0.04,1.23-0.21,1.82c-0.29,1.04-0.55,1.95-0.8,2.76c0.81-0.29,1.73-0.45,2.76-0.45
		c1.95,0,3.66,0.68,5.08,2.03c0.17,0.16,0.32,0.32,0.47,0.49c0.6-3.68,1.28-7.88,1.37-9.12c0.19-2.74-0.01-5.47-0.39-8.18
		C224.65,45.38,224.5,44.69,224.33,44z"/>
	<path class="st1" d="M206.53,38.13l-4.19-2.49c-1.59,1.29-3.12,2.66-4.79,3.85c-2.03,1.46-4.16,2.8-6.64,3.51
		c-1.82,0.52-3.74,0.55-5.59,0.19c-0.32-0.06-0.67-0.1-1.1-0.17c0.17,0.19,0.23,0.28,0.31,0.35c0.08,0.07,0.18,0.11,0.25,0.18
		c2.56,2.52,5.56,3.34,8.94,2.07c1.73-0.65,3.37-1.57,5.01-2.44c1.76-0.93,3.48-1.91,5.37-2.57L206.53,38.13z"/>
</g>
<g>
	<polygon class="st0" points="222.65,14 214.63,31.24 210.58,26.5 210.01,32.57 192.54,28.47 208.42,37.88 203.89,42.5 
		209.93,40.99 204.79,59.95 214.23,43.21 218.3,48.65 217.94,40.63 237.28,47.07 220.85,36.32 227.1,32.45 219.7,33.12 	"/>
</g>
<polygon class="st2" points="217.95,26.52 214.43,34.09 212.64,32.01 212.4,34.68 204.72,32.87 211.7,37.01 209.71,39.04 
	212.36,38.38 210.1,46.7 214.25,39.35 216.04,41.74 215.88,38.22 224.38,41.05 217.16,36.32 219.9,34.62 216.66,34.92 "/>
<rect x="83.2" y="114.18" class="st0" width="130.05" height="19.17"/>
<path class="st1" d="M81.2,133.35H64.23c-5.29,0-9.58-4.29-9.58-9.58v0c0-5.29,4.29-9.58,9.58-9.58H81.2V133.35z"/>
<g>
	<path class="st2" d="M90.79,117.24h4.28c0.96,0,1.7,0.07,2.21,0.22c0.68,0.2,1.26,0.56,1.75,1.07c0.48,0.51,0.85,1.14,1.11,1.88
		c0.25,0.74,0.38,1.65,0.38,2.74c0,0.95-0.12,1.78-0.36,2.47c-0.29,0.84-0.7,1.53-1.24,2.05c-0.41,0.4-0.95,0.7-1.64,0.93
		c-0.52,0.16-1.21,0.25-2.07,0.25h-4.4V117.24z M93.13,119.2v7.68h1.75c0.65,0,1.13-0.04,1.42-0.11c0.38-0.1,0.69-0.26,0.95-0.48
		c0.25-0.23,0.45-0.6,0.61-1.12c0.16-0.52,0.24-1.23,0.24-2.12c0-0.9-0.08-1.58-0.24-2.06c-0.16-0.48-0.38-0.85-0.66-1.12
		c-0.28-0.27-0.65-0.45-1.08-0.55c-0.33-0.07-0.97-0.11-1.92-0.11H93.13z"/>
	<path class="st2" d="M108.96,126.16l2.21,0.37c-0.28,0.81-0.73,1.43-1.35,1.85c-0.61,0.42-1.38,0.64-2.31,0.64
		c-1.46,0-2.54-0.48-3.24-1.43c-0.55-0.76-0.83-1.73-0.83-2.89c0-1.39,0.36-2.48,1.09-3.27c0.73-0.79,1.65-1.18,2.76-1.18
		c1.25,0,2.23,0.41,2.96,1.24c0.72,0.83,1.07,2.09,1.04,3.79h-5.57c0.02,0.66,0.19,1.17,0.54,1.54s0.77,0.55,1.28,0.55
		c0.35,0,0.64-0.1,0.88-0.29C108.66,126.89,108.84,126.58,108.96,126.16z M109.08,123.91c-0.02-0.64-0.18-1.13-0.5-1.47
		c-0.32-0.33-0.7-0.5-1.15-0.5c-0.48,0-0.89,0.18-1.2,0.53c-0.32,0.35-0.47,0.83-0.47,1.44H109.08z"/>
	<path class="st2" d="M122.36,128.83h-2.22v-4.29c0-0.91-0.05-1.49-0.14-1.76c-0.09-0.27-0.25-0.47-0.46-0.62
		c-0.21-0.15-0.47-0.22-0.77-0.22c-0.38,0-0.73,0.11-1.04,0.32c-0.31,0.21-0.51,0.49-0.63,0.84c-0.11,0.35-0.17,0.99-0.17,1.93v3.8
		h-2.22v-8.4h2.06v1.23c0.73-0.95,1.66-1.42,2.77-1.42c0.49,0,0.94,0.09,1.34,0.26c0.41,0.18,0.71,0.4,0.92,0.68
		c0.21,0.27,0.35,0.59,0.43,0.93c0.08,0.35,0.12,0.85,0.12,1.49V128.83z"/>
	<path class="st2" d="M130.08,120.43v1.77h-1.52v3.38c0,0.68,0.01,1.08,0.04,1.2c0.03,0.11,0.1,0.21,0.2,0.28
		c0.1,0.07,0.23,0.11,0.38,0.11c0.21,0,0.5-0.07,0.89-0.21l0.19,1.72c-0.52,0.22-1.1,0.33-1.75,0.33c-0.4,0-0.76-0.07-1.08-0.2
		c-0.32-0.13-0.56-0.31-0.71-0.52c-0.15-0.21-0.25-0.5-0.31-0.87c-0.05-0.26-0.07-0.78-0.07-1.57v-3.66h-1.02v-1.77h1.02v-1.67
		l2.23-1.3v2.97H130.08z"/>
	<path class="st2" d="M134.9,122.99l-2.02-0.36c0.23-0.81,0.62-1.41,1.17-1.8c0.55-0.39,1.38-0.59,2.47-0.59
		c0.99,0,1.73,0.12,2.21,0.35s0.83,0.53,1.02,0.89c0.2,0.36,0.3,1.02,0.3,1.99l-0.02,2.59c0,0.74,0.04,1.28,0.11,1.63
		c0.07,0.35,0.2,0.73,0.4,1.13h-2.2c-0.06-0.15-0.13-0.37-0.21-0.66c-0.04-0.13-0.06-0.22-0.08-0.26c-0.38,0.37-0.79,0.65-1.22,0.83
		c-0.43,0.18-0.89,0.28-1.38,0.28c-0.86,0-1.55-0.23-2.04-0.7c-0.5-0.47-0.75-1.06-0.75-1.78c0-0.47,0.11-0.9,0.34-1.27
		c0.23-0.37,0.54-0.66,0.95-0.85c0.41-0.2,1-0.37,1.77-0.52c1.04-0.2,1.76-0.38,2.16-0.55v-0.22c0-0.43-0.11-0.73-0.32-0.91
		c-0.21-0.18-0.61-0.27-1.19-0.27c-0.4,0-0.7,0.08-0.93,0.23C135.22,122.33,135.04,122.6,134.9,122.99z M137.87,124.8
		c-0.28,0.1-0.73,0.21-1.35,0.34c-0.62,0.13-1.02,0.26-1.21,0.39c-0.29,0.21-0.43,0.47-0.43,0.78c0,0.31,0.12,0.58,0.35,0.81
		c0.23,0.23,0.53,0.34,0.89,0.34c0.4,0,0.78-0.13,1.15-0.4c0.27-0.2,0.45-0.45,0.53-0.74c0.06-0.19,0.09-0.55,0.09-1.08V124.8z"/>
	<path class="st2" d="M143.87,128.83v-11.59h2.22v11.59H143.87z"/>
	<path class="st2" d="M163.54,124.57l2.27,0.72c-0.35,1.26-0.93,2.2-1.74,2.82c-0.81,0.61-1.84,0.92-3.08,0.92
		c-1.54,0-2.8-0.53-3.8-1.58c-0.99-1.05-1.49-2.49-1.49-4.31c0-1.93,0.5-3.43,1.49-4.49c1-1.07,2.31-1.6,3.93-1.6
		c1.42,0,2.57,0.42,3.46,1.26c0.53,0.5,0.92,1.21,1.19,2.13l-2.32,0.55c-0.14-0.6-0.42-1.08-0.86-1.42
		c-0.43-0.35-0.96-0.52-1.59-0.52c-0.86,0-1.56,0.31-2.09,0.93c-0.54,0.62-0.8,1.62-0.8,3c0,1.47,0.26,2.51,0.79,3.13
		c0.53,0.62,1.21,0.93,2.06,0.93c0.62,0,1.16-0.2,1.61-0.59C163.02,126.04,163.34,125.42,163.54,124.57z"/>
	<path class="st2" d="M169.42,128.83v-11.59h2.22v11.59H169.42z"/>
	<path class="st2" d="M175.53,119.29v-2.06h2.22v2.06H175.53z M175.53,128.83v-8.4h2.22v8.4H175.53z"/>
	<path class="st2" d="M189.29,128.83h-2.22v-4.29c0-0.91-0.05-1.49-0.14-1.76c-0.09-0.27-0.25-0.47-0.46-0.62
		c-0.21-0.15-0.47-0.22-0.77-0.22c-0.38,0-0.73,0.11-1.04,0.32c-0.31,0.21-0.51,0.49-0.63,0.84c-0.11,0.35-0.17,0.99-0.17,1.93v3.8
		h-2.22v-8.4h2.06v1.23c0.73-0.95,1.66-1.42,2.77-1.42c0.49,0,0.94,0.09,1.34,0.26c0.41,0.18,0.71,0.4,0.92,0.68
		c0.21,0.27,0.35,0.59,0.43,0.93c0.08,0.35,0.12,0.85,0.12,1.49V128.83z"/>
	<path class="st2" d="M193.16,119.29v-2.06h2.22v2.06H193.16z M193.16,128.83v-8.4h2.22v8.4H193.16z"/>
	<path class="st2" d="M206.6,122.92l-2.19,0.4c-0.07-0.44-0.24-0.77-0.5-0.99c-0.26-0.22-0.6-0.33-1.02-0.33
		c-0.55,0-0.99,0.19-1.32,0.57s-0.49,1.02-0.49,1.92c0,1,0.17,1.7,0.5,2.11s0.78,0.62,1.35,0.62c0.42,0,0.77-0.12,1.04-0.36
		c0.27-0.24,0.46-0.65,0.57-1.24l2.18,0.37c-0.23,1-0.66,1.76-1.3,2.27c-0.64,0.51-1.51,0.77-2.59,0.77c-1.23,0-2.21-0.39-2.94-1.16
		c-0.73-0.78-1.09-1.85-1.09-3.22c0-1.39,0.37-2.47,1.1-3.24c0.73-0.77,1.72-1.16,2.97-1.16c1.02,0,1.84,0.22,2.44,0.66
		C205.91,121.34,206.34,122.01,206.6,122.92z"/>
</g>
</svg>
